<svg width="149" height="54" viewBox="0 0 149 54" fill="none" xmlns="http://www.w3.org/2000/svg">
<path d="M69.8 29.7977V43.3917C69.8 47.416 66.561 50.6549 62.5367 50.6549H51.2002C53.4086 50.6549 55.2244 48.8391 55.2244 46.6307V29.7977C55.2244 27.7855 56.0587 25.9697 57.3837 24.6447C58.7088 23.3196 60.5247 22.4854 62.5367 22.4854C66.561 22.4854 69.8 25.7734 69.8 29.7977Z" fill="#FFCD6E"/>
<path d="M55.2228 41.5264V46.6302C55.2228 48.8387 53.407 50.6545 51.1986 50.6545H50.757C48.2541 50.6545 46.1929 48.5933 46.1929 46.0905C46.1929 43.5875 48.2541 41.5264 50.757 41.5264H55.2228Z" fill="#E5B14F"/>
<path d="M43.4935 9.23469V12.0811H28.1819C28.1328 12.0811 28.0837 12.0811 28.0346 12.0811C26.6114 12.032 25.4336 10.8542 25.4336 9.38192V9.28377C25.4336 7.66427 26.7586 6.33921 28.3782 6.33921H40.549C42.1685 6.29014 43.4935 7.61519 43.4935 9.23469Z" fill="#D97975"/>
<path d="M11.2022 41.4775C7.22705 41.4775 4.03711 38.2876 4.03711 34.3616V29.6012C4.03711 27.6381 4.82232 25.8223 6.14737 24.5463C7.42335 23.2703 9.23916 22.436 11.2022 22.436H25.4834C23.5203 22.436 21.7044 23.2213 20.4285 24.5463C19.1525 25.8223 18.3182 27.6381 18.3182 29.6012V34.3616C18.3182 36.3246 17.533 38.1404 16.2079 39.4163C14.932 40.6923 13.1652 41.4775 11.2022 41.4775Z" fill="#D97975"/>
<path d="M45.5554 12.0815H43.4942H28.1825C28.1334 12.0815 28.0843 12.0815 28.0353 12.0815C26.612 12.0324 25.4343 10.8546 25.4343 9.38232V22.4366C23.4712 22.4366 21.7044 23.2217 20.4285 24.5468C19.1525 25.8228 18.3182 27.6386 18.3182 29.6016V34.362C18.3182 36.325 17.5331 38.1408 16.2079 39.4168C14.932 40.6928 13.1162 41.527 11.1531 41.527C7.22705 41.478 4.03711 38.2881 4.03711 34.362V36.4232C4.03711 40.3493 5.65661 43.9318 8.20857 46.5329C10.8096 49.1339 14.3921 50.7043 18.3182 50.7043C26.2194 50.7043 32.5993 44.2753 32.5993 36.4232V32.1536C32.8938 32.2027 33.1392 32.2027 33.4336 32.2027H45.5064C49.9231 32.2027 53.5548 28.6201 53.5548 24.1542V20.13C53.6038 15.664 49.9722 12.0815 45.5554 12.0815Z" fill="#F59591"/>
<path d="M143.806 12.6207L142.285 14.1421C141.598 13.6022 140.861 13.1606 140.027 12.8661C139.144 12.5225 138.211 12.3753 137.181 12.3753H129.181L136.346 5.21022C136.887 4.67038 137.476 4.27777 138.114 4.08147C139.88 3.3944 141.991 3.78701 143.414 5.21022L143.757 5.55375C145.769 7.46771 145.769 10.6576 143.806 12.6207Z" fill="#59A5C1"/>
<path d="M145.277 20.3749V24.3991C145.277 28.816 141.695 32.4476 137.228 32.4476H125.156C120.739 32.4476 117.107 28.8651 117.107 24.3991V8.30225C117.107 10.5107 118.825 12.2774 120.984 12.3265C121.034 12.3265 121.082 12.3265 121.131 12.3265H127.61H137.228C138.21 12.3265 139.192 12.5228 140.075 12.8172C140.909 13.1117 141.645 13.5534 142.332 14.0933C144.099 15.6146 145.277 17.8721 145.277 20.3749Z" fill="#7DC3DC"/>
<path d="M127.659 8.30213V12.3264H121.034C118.874 12.2773 117.157 10.5106 117.157 8.30213C117.108 5.55388 119.365 3.29639 122.162 3.29639H122.653C125.401 3.29639 127.659 5.55388 127.659 8.30213Z" fill="#59A5C1"/>
<path d="M109.6 7.81147C109.6 9.1856 108.472 10.3143 107.097 10.3143C105.723 10.3143 104.595 9.1856 104.595 7.81147C104.595 6.43734 105.723 5.30859 107.097 5.30859C108.472 5.30859 109.6 6.43734 109.6 7.81147Z" fill="#55B98D"/>
<path d="M85.8964 7.81147C85.8964 9.1856 84.7677 10.3143 83.3935 10.3143C82.0194 10.3143 80.8906 9.1856 80.8906 7.81147C80.8906 6.43734 82.0194 5.30859 83.3935 5.30859C84.7677 5.30859 85.8964 6.43734 85.8964 7.81147Z" fill="#55B98D"/>
<path d="M53.6039 7.81147C53.6039 9.1856 52.4752 10.3143 51.1011 10.3143C49.7269 10.3143 48.5981 9.1856 48.5981 7.81147C48.5981 6.43734 49.7269 5.30859 51.1011 5.30859C52.4752 5.30859 53.6039 6.43734 53.6039 7.81147Z" fill="#D97975"/>
<path d="M40.8441 5.3085H28.7223C28.3297 5.3085 28.0352 5.01404 28.0352 4.62144V3.98345C28.0352 3.59084 28.3297 3.29639 28.7223 3.29639H40.8441C41.2366 3.29639 41.5311 3.59084 41.5311 3.98345V4.62144C41.5311 5.01404 41.2366 5.3085 40.8441 5.3085Z" fill="#D97975"/>
<path d="M109.551 15.8601V18.7065H104.889C103.368 18.6574 102.141 17.4305 102.141 15.8601C102.141 13.897 103.711 12.3267 105.674 12.3267C107.638 12.3267 109.257 13.7499 109.551 15.6147C109.503 15.6638 109.551 15.762 109.551 15.8601Z" fill="#55B98D"/>
<path d="M109.55 18.7065H104.888C103.366 18.6574 102.139 17.4305 102.139 15.8601C102.139 14.0443 103.513 12.523 105.28 12.3267H105.329C105.427 12.3267 105.525 12.3267 105.624 12.3267H104.298C102.581 12.3267 101.01 12.7683 99.5867 13.5045C98.7038 13.9953 97.8694 14.5842 97.1824 15.2712C96.299 16.1546 95.6119 17.1361 95.1212 18.3139V16.3018C95.1212 14.1424 93.3544 12.3757 91.1951 12.3757H78.6317C76.5214 12.3757 74.8528 13.9953 74.7056 16.0565C74.7056 16.1546 74.7056 16.2037 74.7056 16.3018C74.7056 16.8416 74.9018 17.3324 75.1963 17.7741L75.2454 17.8231L75.4417 18.0195L79.7604 22.5835L85.3551 28.5218L85.4532 28.6199C85.8458 29.0125 86.0421 29.6014 86.0421 30.1903C86.0421 31.4663 85.0116 32.4969 83.6865 32.4969H90.9007H91.146H107.586H109.55C112.69 32.4969 115.243 29.9449 115.243 26.8041V24.3503C115.193 21.2095 112.642 18.7065 109.55 18.7065Z" fill="#79C7A0"/>
<path d="M74.7056 28.6201C74.7056 28.0802 74.9018 27.5403 75.2454 27.1478L75.5398 26.8533L79.7604 22.6328L85.3551 28.571L85.4532 28.6691C85.8458 29.0617 86.0421 29.6506 86.0421 30.2395C86.0421 31.5155 85.0116 32.5461 83.6865 32.5461H78.6317C76.5705 32.5461 74.8528 30.9266 74.7056 28.8655C74.7056 28.7672 74.7056 28.6691 74.7056 28.6201Z" fill="#55B98D"/>
</svg>
