<svg xmlns="http://www.w3.org/2000/svg" width="16" height="16" viewBox="0 0 16 16" fill="none">
  <mask id="mask0_2130_19498" style="mask-type:alpha" maskUnits="userSpaceOnUse" x="0" y="0" width="16" height="16">
    <rect width="16" height="16" fill="#D9D9D9"/>
  </mask>
  <g mask="url(#mask0_2130_19498)">
    <path d="M14.0166 7.36667V12.6667C14.0166 13.0333 13.886 13.3472 13.6249 13.6083C13.3638 13.8694 13.0499 14 12.6832 14H3.3499C2.98323 14 2.66934 13.8694 2.40823 13.6083C2.14712 13.3472 2.01656 13.0333 2.01656 12.6667V7.36667C1.76101 7.13333 1.56378 6.83333 1.4249 6.46667C1.28601 6.1 1.28323 5.7 1.41656 5.26667L2.11656 3C2.20545 2.71111 2.36378 2.47222 2.59156 2.28333C2.81934 2.09444 3.08323 2 3.38323 2H12.6499C12.9499 2 13.211 2.09167 13.4332 2.275C13.6555 2.45833 13.8166 2.7 13.9166 3L14.6166 5.26667C14.7499 5.7 14.7471 6.09444 14.6082 6.45C14.4693 6.80556 14.2721 7.11111 14.0166 7.36667ZM9.48323 6.66667C9.78323 6.66667 10.011 6.56389 10.1666 6.35833C10.3221 6.15278 10.3832 5.92222 10.3499 5.66667L9.98323 3.33333H8.68323V5.8C8.68323 6.03333 8.76101 6.23611 8.91656 6.40833C9.07212 6.58056 9.26101 6.66667 9.48323 6.66667ZM6.48323 6.66667C6.73879 6.66667 6.94712 6.58056 7.10823 6.40833C7.26934 6.23611 7.3499 6.03333 7.3499 5.8V3.33333H6.0499L5.68323 5.66667C5.63879 5.93333 5.69712 6.16667 5.85823 6.36667C6.01934 6.56667 6.22767 6.66667 6.48323 6.66667ZM3.51656 6.66667C3.71656 6.66667 3.89156 6.59444 4.04156 6.45C4.19156 6.30556 4.28323 6.12222 4.31656 5.9L4.68323 3.33333H3.38323L2.71656 5.56667C2.6499 5.78889 2.68601 6.02778 2.8249 6.28333C2.96378 6.53889 3.19434 6.66667 3.51656 6.66667ZM12.5166 6.66667C12.8388 6.66667 13.0721 6.53889 13.2166 6.28333C13.361 6.02778 13.3943 5.78889 13.3166 5.56667L12.6166 3.33333H11.3499L11.7166 5.9C11.7499 6.12222 11.8416 6.30556 11.9916 6.45C12.1416 6.59444 12.3166 6.66667 12.5166 6.66667ZM3.3499 12.6667H12.6832V7.96667C12.6277 7.98889 12.5916 8 12.5749 8H12.5166C12.2166 8 11.9527 7.95 11.7249 7.85C11.4971 7.75 11.2721 7.58889 11.0499 7.36667C10.8499 7.56667 10.6221 7.72222 10.3666 7.83333C10.111 7.94444 9.83879 8 9.5499 8C9.2499 8 8.96934 7.94444 8.70823 7.83333C8.44712 7.72222 8.21656 7.56667 8.01656 7.36667C7.82767 7.56667 7.60823 7.72222 7.35823 7.83333C7.10823 7.94444 6.83879 8 6.5499 8C6.22767 8 5.93601 7.94444 5.6749 7.83333C5.41379 7.72222 5.18323 7.56667 4.98323 7.36667C4.7499 7.6 4.51934 7.76389 4.29156 7.85833C4.06379 7.95278 3.80545 8 3.51656 8H3.44156C3.41378 8 3.38323 7.98889 3.3499 7.96667V12.6667Z" fill="white"/>
  </g>
</svg>